<svg xmlns="http://www.w3.org/2000/svg" data-name="Layer 1" viewBox="0 0 650 512">
  <path fill="#dbe8ec"
    d="M81.096 276.294v18.192a13.08 13.08 0 0 0 13.08 13.079h46.165a13.08 13.08 0 0 1 13.08 13.08v18.19a13.08 13.08 0 0 1-13.08 13.08h-1.457a13.08 13.08 0 0 0-13.08 13.08v18.19a13.08 13.08 0 0 0 13.08 13.08H500.79a13.08 13.08 0 0 0 13.08-13.08v-18.19a13.08 13.08 0 0 0-13.08-13.08 13.08 13.08 0 0 1-13.08-13.08v-18.19a13.08 13.08 0 0 1 13.08-13.08h50.58a13.08 13.08 0 0 0 13.079-13.08v-18.19a13.08 13.08 0 0 0-13.08-13.08h-19.846a13.08 13.08 0 0 1-13.08-13.08v-18.19a13.08 13.08 0 0 1 13.08-13.08h.048a13.08 13.08 0 0 0 13.079-13.08v-18.19a13.08 13.08 0 0 0-13.08-13.08h-2.87a13.08 13.08 0 0 1-13.08-13.08v-18.19a13.08 13.08 0 0 1 13.08-13.08h27.124a13.08 13.08 0 0 0 13.08-13.08v-18.19a13.08 13.08 0 0 0-13.08-13.08H131.862a13.08 13.08 0 0 0-13.08 13.08v18.19a13.08 13.08 0 0 0 13.08 13.08h11.34a13.08 13.08 0 0 1 13.08 13.08v18.19a13.08 13.08 0 0 1-13.08 13.08h-26.74a13.08 13.08 0 0 0-13.08 13.08v18.19a13.08 13.08 0 0 0 13.08 13.08h8.112a13.08 13.08 0 0 1 13.08 13.08v18.19a13.08 13.08 0 0 1-13.08 13.08H94.175a13.08 13.08 0 0 0-13.08 13.08Z" />
  <path fill="#b9d4db"
    d="M428.645 142.877h39.787v18.665h-39.787zM428.645 186.946h39.787v18.665h-39.787zM406.752 164.906h39.787v18.665h-39.787zM449.903 164.906h39.787v18.665h-39.787zM213.331 142.876h-39.787v-18.665h39.787zM233.224 120.846h-39.787v-18.665h39.787zM190.073 120.846h-39.787v-18.665h39.787z" />
  <path fill="#e06714"
    d="M456.199 326.62c-5.478-.278-8.783-6.664-9.546-8.139a16.115 16.115 0 0 1-1.94-7.013c-.092-3.115.907-3.778.476-6.281-.487-2.827-2.028-3.535-3.62-6.592a20.89 20.89 0 0 1-2.09-8.672 25.003 25.003 0 0 1 2.715-14.077c9.224-16.604 14.59-25.81 14.59-25.81s13.258 14.564 15.337 26.99c.89 5.312 1.98 5.908 1.413 11.724-.246 2.518-1.504 3.73-2.352 6.871-.349 1.294-.289 1.928-.224 6.575a33.24 33.24 0 0 1-.053 7.96 20.741 20.741 0 0 1-6.12 11.896c-2.224 2.139-4.942 4.753-8.586 4.568Z" />
  <path fill="#ee781d" d="m457.9 268.66-.17 159.407-3.828-.05L457.9 268.66z" />
  <path fill="#f9ae2b"
    d="M480.727 335.017c-4.934-1.31-6.71-7.762-7.12-9.252a14.997 14.997 0 0 1-.413-6.76c.518-2.853 1.555-3.263 1.646-5.626.102-2.667-1.164-3.609-2.024-6.7a19.441 19.441 0 0 1-.23-8.298 23.269 23.269 0 0 1 5.189-12.292c11.6-13.337 18.263-20.683 18.263-20.683s9.26 15.818 8.756 27.532c-.216 5.008.662 5.76-.977 10.947-.71 2.245-2.09 3.105-3.467 5.801-.567 1.111-.635 1.7-1.472 5.943a30.934 30.934 0 0 1-1.585 7.237 19.303 19.303 0 0 1-7.868 9.65c-2.437 1.517-5.416 3.373-8.698 2.501Z" />
  <path fill="#409cb5" d="m493.461 282.577-33.672 152.119-4.469-1.058 38.141-151.061z" />
  <path fill="#ee781d"
    d="M452.943 379.842c-3.86-.196-6.188-4.696-6.725-5.735a11.354 11.354 0 0 1-1.367-4.941c-.064-2.195.64-2.661.336-4.425-.343-1.992-1.429-2.49-2.551-4.644a14.717 14.717 0 0 1-1.472-6.11 17.615 17.615 0 0 1 1.913-9.918c6.498-11.698 10.279-18.184 10.279-18.184s9.34 10.261 10.806 19.015c.626 3.743 1.394 4.163.995 8.26-.173 1.774-1.06 2.628-1.657 4.841-.246.912-.204 1.359-.158 4.633a23.42 23.42 0 0 1-.038 5.608 14.613 14.613 0 0 1-4.312 8.381c-1.566 1.507-3.481 3.349-6.049 3.219Z" />
  <path fill="#409cb5"
    d="m454.143 339.006-.792 90.123-3.826-.115 4.618-90.008zM467.292 353.341c-4.361-.22-6.993-5.306-7.6-6.48a12.83 12.83 0 0 1-1.545-5.584c-.073-2.48.723-3.007.38-5-.388-2.251-1.615-2.815-2.883-5.249a16.632 16.632 0 0 1-1.663-6.905 19.907 19.907 0 0 1 2.161-11.207c7.343-13.22 11.616-20.55 11.616-20.55s10.556 11.596 12.212 21.49c.708 4.229 1.576 4.703 1.124 9.334-.195 2.004-1.197 2.97-1.872 5.47-.278 1.03-.23 1.536-.178 5.235a26.465 26.465 0 0 1-.043 6.338 16.514 16.514 0 0 1-4.873 9.472c-1.77 1.702-3.934 3.784-6.836 3.636Z" />
  <path fill="#ee781d"
    d="m468.762 307.2-.992 30.707-1.107 30.701c-.36 10.235-.588 20.475-1.221 30.696-.325 5.11-.65 10.221-1.074 15.327l-.638 7.658c-.259 2.55-.475 5.103-.772 7.652l-.23-.01c-.054-2.566-.028-5.128-.045-7.691l.086-7.685c.06-5.123.22-10.24.378-15.36.334-10.235 1.073-20.45 1.68-30.673l1.796-30.67 1.91-30.663Z" />
  <path fill="#f9ae2b"
    d="M439.668 357.011c-4.204.32-7.342-4.23-8.066-5.28a12.385 12.385 0 0 1-2.16-5.159c-.371-2.366.326-2.968-.245-4.835-.646-2.107-1.889-2.498-3.4-4.674a16.054 16.054 0 0 1-2.433-6.41 19.216 19.216 0 0 1 .706-10.995c5.423-13.553 8.622-21.092 8.622-21.092s11.52 9.82 14.309 19.091c1.192 3.964 2.082 4.312 2.213 8.802.057 1.943-.785 2.99-1.127 5.466-.14 1.02-.034 1.498.467 5.035a25.546 25.546 0 0 1 .73 6.074 15.94 15.94 0 0 1-3.513 9.663c-1.488 1.846-3.307 4.102-6.103 4.314Z" />
  <path fill="#ee781d" d="m435.348 312.657 17.136 112.999-4.555.598-12.581-113.597z" />
  <path fill="#e06714"
    d="M487.566 358.3c-4.429-1.523-5.63-7.543-5.906-8.933a13.758 13.758 0 0 1 .066-6.212c.661-2.577 1.637-2.884 1.875-5.04.27-2.434-.827-3.379-1.411-6.263a17.834 17.834 0 0 1 .337-7.608 21.345 21.345 0 0 1 5.555-10.906c11.491-11.44 18.07-17.723 18.07-17.723s7.433 15.082 6.2 25.767c-.526 4.568.228 5.314-1.612 9.951-.797 2.008-2.116 2.704-3.554 5.08-.593.98-.693 1.514-1.738 5.341a28.378 28.378 0 0 1-1.927 6.518 17.707 17.707 0 0 1-7.832 8.311c-2.33 1.229-5.178 2.73-8.123 1.717Z" />
  <path fill="#ee781d" d="m502.665 311.156-34.94 117.498-3.651-1.148 38.591-116.35z" />
  <path fill="#f9ae2b"
    d="M437.16 395.18c-2.83.573-5.348-2.254-5.93-2.906a8.483 8.483 0 0 1-1.904-3.324c-.452-1.577-.03-2.045-.576-3.266-.617-1.378-1.495-1.538-2.706-2.89a10.997 10.997 0 0 1-2.196-4.15 13.162 13.162 0 0 1-.45-7.534c2.539-9.67 4.075-15.066 4.075-15.066s8.661 5.7 11.342 11.766c1.146 2.593 1.78 2.755 2.249 5.795.203 1.316-.281 2.099-.304 3.811-.01.706.104 1.021.743 3.383a17.498 17.498 0 0 1 1.01 4.067 10.919 10.919 0 0 1-1.57 6.865c-.855 1.38-1.9 3.068-3.783 3.45Z" />
  <path fill="#409cb5"
    d="m430.583 365.372 4.126 16.324 4.013 16.35c1.323 5.453 2.84 10.863 3.902 16.375 1.076 5.508 2.06 11.037 2.669 16.65l-.224.05c-1.843-5.336-3.31-10.757-4.686-16.198-1.39-5.439-2.325-10.979-3.454-16.475l-3.34-16.5-3.23-16.526zm57.515 20.319c-4.01-1.832-4.587-7.584-4.72-8.912a12.955 12.955 0 0 1 .63-5.816c.855-2.355 1.798-2.554 2.218-4.553.474-2.256-.467-3.242-.751-5.998a16.793 16.793 0 0 1 1.01-7.1 20.1 20.1 0 0 1 6.202-9.714c11.814-9.673 18.554-14.96 18.554-14.96s5.589 14.813 3.459 24.714c-.91 4.233-.272 5.002-2.42 9.18-.93 1.808-2.23 2.341-3.795 4.437-.645.863-.788 1.355-2.116 4.847a26.721 26.721 0 0 1-2.4 5.932 16.674 16.674 0 0 1-8.1 7.075c-2.296.938-5.102 2.086-7.77.868z" />
  <path fill="#ee781d"
    d="m506.659 342.93-9.77 23.779-9.876 23.733c-3.306 7.905-6.429 15.889-9.981 23.687-3.538 7.805-7.163 15.572-11.14 23.187l-.211-.09c2.816-8.117 5.987-16.08 9.243-24.007 3.242-7.933 6.914-15.68 10.402-23.506l10.509-23.46 10.613-23.414Z" />
  <path fill="#f9ae2b"
    d="M490.27 404c-2.279-1.988-1.533-5.88-1.36-6.778a8.88 8.88 0 0 1 1.55-3.699c1.021-1.38 1.68-1.326 2.346-2.557.752-1.39.326-2.222.679-4.089a11.512 11.512 0 0 1 2.05-4.468 13.778 13.778 0 0 1 5.973-5.17c9.653-4.047 15.115-6.205 15.115-6.205s.778 10.825-2.556 16.915c-1.426 2.604-1.156 3.233-3.384 5.559-.965 1.006-1.923 1.102-3.36 2.174-.593.441-.783.736-2.338 2.77a18.317 18.317 0 0 1-2.737 3.43 11.43 11.43 0 0 1-6.704 3.066c-1.692.168-3.76.374-5.275-.948Z" />
  <path fill="#409cb5"
    d="m510.847 379.553-10.955 13.808-11.043 13.734c-3.693 4.568-7.233 9.264-11.131 13.66-3.887 4.406-7.846 8.751-12.1 12.85l-.176-.148c3.284-4.91 6.863-9.573 10.515-14.176 3.64-4.612 7.637-8.925 11.483-13.365l11.572-13.292 11.66-13.218Z" />
  <path fill="#f9ae2b"
    d="M194.172 307.799c6.41-.325 10.276-7.798 11.168-9.523a18.855 18.855 0 0 0 2.27-8.206c.107-3.645-1.061-4.42-.557-7.349.57-3.307 2.373-4.135 4.236-7.712a24.441 24.441 0 0 0 2.445-10.147 29.254 29.254 0 0 0-3.177-16.47c-10.791-19.427-17.07-30.199-17.07-30.199s-15.512 17.041-17.945 31.58c-1.04 6.215-2.317 6.911-1.653 13.717.287 2.946 1.76 4.364 2.752 8.04.408 1.513.338 2.255.261 7.692a38.89 38.89 0 0 0 .063 9.314c.905 7.725 6.153 12.95 7.161 13.918 2.602 2.502 5.782 5.56 10.046 5.345Z" />
  <path fill="#e06714" d="m192.181 239.984.199 186.51 4.479-.058-4.678-186.452z" />
  <path fill="#f9ae2b"
    d="M165.473 317.624c5.772-1.533 7.851-9.082 8.33-10.825a17.547 17.547 0 0 0 .483-7.91c-.605-3.338-1.819-3.818-1.925-6.582-.12-3.121 1.362-4.223 2.369-7.839a22.746 22.746 0 0 0 .267-9.71 27.225 27.225 0 0 0-6.07-14.381c-13.574-15.605-21.369-24.2-21.369-24.2s-10.834 18.507-10.244 32.213c.253 5.86-.775 6.74 1.143 12.807.83 2.627 2.444 3.634 4.056 6.789.664 1.3.743 1.989 1.723 6.953a36.194 36.194 0 0 0 1.855 8.468 22.585 22.585 0 0 0 9.205 11.29c2.85 1.776 6.337 3.946 10.177 2.927Z" />
  <path fill="#409cb5" d="m150.574 256.267 39.397 177.984 5.229-1.239-44.626-176.745z" />
  <path fill="#f9ae2b"
    d="M197.98 370.07c4.516-.23 7.24-5.494 7.869-6.71a13.284 13.284 0 0 0 1.6-5.781c.075-2.568-.748-3.114-.393-5.178.402-2.33 1.672-2.914 2.984-5.434a17.22 17.22 0 0 0 1.723-7.149 20.61 20.61 0 0 0-2.238-11.603c-7.603-13.688-12.027-21.276-12.027-21.276s-10.929 12.005-12.643 22.248c-.733 4.38-1.632 4.87-1.164 9.665.202 2.075 1.24 3.075 1.938 5.664.288 1.066.238 1.59.185 5.42a27.4 27.4 0 0 0 .044 6.562 17.098 17.098 0 0 0 5.045 9.806c1.833 1.763 4.073 3.918 7.077 3.765Z" />
  <path fill="#409cb5"
    d="m196.577 322.291.927 105.446 4.476-.135-5.403-105.311zM181.192 339.063c5.103-.258 8.182-6.208 8.892-7.582a15.012 15.012 0 0 0 1.808-6.533c.085-2.902-.846-3.519-.444-5.851.454-2.633 1.89-3.293 3.373-6.14a19.46 19.46 0 0 0 1.946-8.08 23.292 23.292 0 0 0-2.529-13.112c-8.592-15.468-13.592-24.044-13.592-24.044s-12.35 13.567-14.287 25.142c-.828 4.95-1.844 5.504-1.316 10.922.229 2.346 1.401 3.475 2.191 6.401.325 1.205.27 1.796.208 6.125a30.964 30.964 0 0 0 .05 7.416 19.322 19.322 0 0 0 5.702 11.081c2.071 1.992 4.603 4.428 7.998 4.255Z" />
  <path fill="#ee781d"
    d="m179.472 285.076 1.161 35.928 1.295 35.922c.421 11.974.688 23.956 1.43 35.915.38 5.98.759 11.959 1.255 17.932l.747 8.961c.303 2.984.555 5.971.903 8.953l.268-.013c.065-3.001.034-5.998.054-8.998l-.101-8.99c-.07-5.995-.256-11.983-.442-17.972-.39-11.975-1.256-23.929-1.967-35.89l-2.1-35.883-2.234-35.878Z" />
  <path fill="#f9ae2b"
    d="M213.513 343.357c4.919.374 8.59-4.948 9.438-6.178a14.49 14.49 0 0 0 2.526-6.036c.435-2.768-.38-3.472.288-5.657.755-2.466 2.21-2.923 3.977-5.469a18.784 18.784 0 0 0 2.847-7.5 22.483 22.483 0 0 0-.826-12.864c-6.344-15.857-10.088-24.678-10.088-24.678s-13.478 11.489-16.742 22.337c-1.395 4.638-2.435 5.045-2.589 10.298-.067 2.274.919 3.498 1.319 6.396.164 1.194.039 1.753-.546 5.89a29.89 29.89 0 0 0-.855 7.108 18.65 18.65 0 0 0 4.11 11.305c1.741 2.16 3.87 4.8 7.141 5.048Z" />
  <path fill="#ee781d"
    d="m218.568 291.462-20.05 132.212 5.329.699 14.721-132.911zM157.472 344.865c5.18-1.782 6.586-8.826 6.91-10.452a16.097 16.097 0 0 0-.078-7.268c-.774-3.015-1.916-3.375-2.194-5.897-.315-2.848.968-3.953 1.651-7.328a20.866 20.866 0 0 0-.394-8.902 24.974 24.974 0 0 0-6.5-12.76c-13.445-13.385-21.143-20.736-21.143-20.736s-8.695 17.646-7.254 30.147c.616 5.345-.266 6.218 1.887 11.644.933 2.349 2.476 3.164 4.158 5.944.693 1.146.811 1.771 2.034 6.249a33.201 33.201 0 0 0 2.254 7.626 20.718 20.718 0 0 0 9.165 9.724c2.725 1.438 6.057 3.195 9.504 2.01Z" />
  <path fill="#f9ae2b" d="m139.805 289.706 40.88 137.476 4.272-1.344-45.152-136.132z" />
  <path fill="#e06714"
    d="M216.447 388.016c3.312.67 6.258-2.637 6.938-3.4a9.926 9.926 0 0 0 2.228-3.89c.53-1.845.035-2.393.674-3.82.722-1.613 1.75-1.8 3.166-3.382a12.867 12.867 0 0 0 2.57-4.857 15.4 15.4 0 0 0 .527-8.814c-2.97-11.315-4.769-17.627-4.769-17.627s-10.133 6.668-13.27 13.766c-1.34 3.034-2.082 3.223-2.631 6.78-.238 1.54.329 2.456.355 4.46.011.825-.122 1.194-.87 3.957a20.473 20.473 0 0 0-1.182 4.759 12.775 12.775 0 0 0 1.838 8.032c1 1.616 2.224 3.59 4.426 4.036Z" />
  <path fill="#f9ae2b"
    d="m224.143 353.14-4.827 19.1-4.696 19.13c-1.549 6.38-3.323 12.71-4.566 19.158-1.258 6.445-2.41 12.914-3.122 19.482l.262.059c2.156-6.245 3.873-12.587 5.483-18.954 1.626-6.363 2.72-12.845 4.04-19.276l3.91-19.306 3.778-19.335Z" />
  <path fill="#409cb5"
    d="M156.848 376.913c4.693-2.143 5.368-8.873 5.522-10.427a15.158 15.158 0 0 0-.736-6.805c-1-2.755-2.104-2.988-2.595-5.326-.555-2.64.547-3.794.879-7.02a19.648 19.648 0 0 0-1.182-8.306 23.517 23.517 0 0 0-7.256-11.365c-13.824-11.318-21.71-17.505-21.71-17.505s-6.538 17.332-4.046 28.917c1.065 4.953.318 5.852 2.832 10.74 1.088 2.117 2.609 2.74 4.44 5.192.753 1.01.92 1.585 2.475 5.67a31.265 31.265 0 0 0 2.81 6.942 19.509 19.509 0 0 0 9.476 8.277c2.686 1.099 5.97 2.441 9.091 1.016Z" />
  <path fill="#ee781d"
    d="m135.132 326.882 11.431 27.822 11.555 27.768c3.868 9.25 7.522 18.59 11.678 27.715 4.14 9.132 8.38 18.22 13.035 27.13l.247-.107c-3.296-9.497-7.005-18.814-10.815-28.088-3.794-9.282-8.09-18.346-12.172-27.502l-12.294-27.45-12.419-27.395Z" />
  <path fill="#f9ae2b"
    d="M154.308 398.335c2.665-2.325 1.793-6.88 1.591-7.93a10.39 10.39 0 0 0-1.813-4.328c-1.196-1.615-1.966-1.552-2.746-2.992-.88-1.627-.382-2.6-.794-4.784a13.47 13.47 0 0 0-2.4-5.227 16.121 16.121 0 0 0-6.988-6.05c-11.294-4.735-17.685-7.26-17.685-7.26s-.91 12.666 2.992 19.791c1.667 3.046 1.352 3.783 3.959 6.504 1.128 1.178 2.25 1.29 3.931 2.544.693.516.916.861 2.735 3.242a21.432 21.432 0 0 0 3.202 4.012 13.373 13.373 0 0 0 7.845 3.587c1.979.197 4.399.438 6.171-1.11Z" />
  <path fill="#409cb5"
    d="m130.231 369.732 12.818 16.155 12.92 16.07c4.321 5.344 8.464 10.839 13.025 15.982 4.548 5.155 9.18 10.24 14.157 15.035l.206-.173c-3.843-5.745-8.03-11.2-12.303-16.586-4.258-5.397-8.936-10.443-13.435-15.638l-13.54-15.552-13.642-15.466Z" />
  <path fill="#4469a0" d="M124.269 424.64h405v15.12h-405z" />
  <path fill="#6e3fb9" d="M382.749 424.64V146.72a89.28 89.28 0 0 0-89.28-89.28 89.28 89.28 0 0 0-89.28 89.28v277.92Z" />
  <path fill="#9F6CEF"
    d="m433.149 441.92-178.56 40V119.36a89.28 89.28 0 0 1 89.28-89.28 89.28 89.28 0 0 1 89.28 89.28Z" />
  <circle cx="279.789" cy="281.36" r="13.68" fill="#f9ae2b" />
  <circle cx="343.869" cy="158.96" r="7.92" fill="#f9ae2b" />
  <path fill="#f9ae2b"
    d="M284.749 311.42c0 2.187-2.773 7.96-4.96 7.96s-4.96-5.773-4.96-7.96 2.773-3.96 4.96-3.96 4.96 1.773 4.96 3.96Z" />
</svg>